<?xml version="1.0" standalone="no"?>
<!DOCTYPE svg PUBLIC "-//W3C//DTD SVG 20010904//EN"
 "http://www.w3.org/TR/2001/REC-SVG-20010904/DTD/svg10.dtd">
<svg version="1.0" xmlns="http://www.w3.org/2000/svg"
 width="700.000000pt" height="700.000000pt" viewBox="0 0 700.000000 700.000000"
 preserveAspectRatio="xMidYMid meet">
<metadata>
Created by potrace 1.14, written by Peter Selinger 2001-2017
</metadata>
<g transform="translate(0.000000,700.000000) scale(0.100000,-0.100000)"
fill="#000000" stroke="none">
<path d="M3417 6234 c-1 -1 -50 -4 -109 -8 -561 -34 -1122 -260 -1563 -629
-94 -79 -305 -294 -374 -382 -34 -44 -69 -88 -77 -98 -22 -27 -137 -205 -167
-257 -51 -90 -139 -274 -174 -363 -37 -98 -108 -322 -116 -372 -3 -17 -12 -61
-20 -100 -9 -38 -18 -92 -21 -120 -4 -27 -8 -66 -11 -85 -23 -188 -23 -507 0
-641 1 -8 6 -42 9 -75 4 -32 9 -66 11 -74 2 -8 7 -31 10 -50 3 -19 17 -80 31
-135 117 -476 355 -901 702 -1255 78 -80 166 -163 194 -185 28 -22 56 -45 62
-50 27 -25 224 -164 249 -176 15 -7 27 -16 27 -21 0 -4 4 -8 9 -8 5 0 50 -23
101 -51 244 -135 595 -257 840 -294 25 -4 59 -9 75 -11 196 -32 589 -37 730
-9 11 2 43 7 70 10 249 30 610 147 855 278 128 68 299 174 359 222 9 8 52 42
96 76 100 79 312 289 397 394 241 297 409 618 513 975 20 69 38 141 41 160 3
19 7 37 9 40 2 3 6 24 9 46 4 22 9 51 12 64 3 14 7 43 10 65 2 22 6 49 9 60 7
32 18 233 18 320 0 86 -10 284 -17 325 -3 14 -7 48 -11 75 -31 254 -146 613
-277 862 -82 156 -194 330 -282 438 -23 27 -48 59 -56 70 -45 59 -329 331
-417 398 -310 235 -642 397 -1003 487 -180 45 -283 62 -461 75 -74 6 -288 12
-292 9z"/>
</g>
</svg>
