<?xml version="1.0" standalone="no"?>
<!DOCTYPE svg PUBLIC "-//W3C//DTD SVG 20010904//EN"
 "http://www.w3.org/TR/2001/REC-SVG-20010904/DTD/svg10.dtd">
<svg version="1.0" xmlns="http://www.w3.org/2000/svg"
 width="700.000000pt" height="700.000000pt" viewBox="0 0 700.000000 700.000000"
 preserveAspectRatio="xMidYMid meet">
<metadata>
Created by potrace 1.14, written by Peter Selinger 2001-2017
</metadata>
<g transform="translate(0.000000,700.000000) scale(0.100000,-0.100000)"
fill="#000000" stroke="none">
<path d="M0 3500 l0 -3500 3500 0 3500 0 0 3500 0 3500 -3500 0 -3500 0 0
-3500z m3895 3065 c645 -87 1244 -368 1705 -800 513 -481 846 -1101 955 -1777
27 -169 36 -291 36 -493 0 -435 -77 -813 -247 -1212 -163 -381 -362 -673 -663
-974 -182 -181 -271 -254 -476 -390 -692 -460 -1528 -616 -2360 -442 -767 160
-1485 651 -1920 1313 -271 412 -434 863 -497 1370 -19 155 -16 573 6 730 98
711 402 1321 902 1811 77 74 186 173 243 218 488 388 1069 614 1706 665 108 8
495 -4 610 -19z"/>
<path d="M3275 5643 c-816 -100 -1484 -608 -1779 -1353 -41 -104 -96 -286 -96
-317 0 -10 217 -13 1050 -13 l1050 0 0 -460 0 -460 -1051 0 -1051 0 7 -32 c10
-54 75 -259 102 -323 296 -713 928 -1205 1693 -1321 155 -24 444 -24 600 0
479 72 886 275 1225 612 511 508 733 1245 589 1954 -183 905 -932 1596 -1854
1710 -78 9 -416 12 -485 3z"/>
</g>
</svg>
